<svg width="100" height="100" viewBox="0 0 100 100" fill="none" xmlns="http://www.w3.org/2000/svg">
<rect width="100" height="100" rx="8" fill="white"/>
<line x1="26.2344" y1="24.5" x2="26.2344" y2="75.5" stroke="#0000FF" stroke-width="2" stroke-linejoin="round"/>
<path d="M38.0566 29.498H34.3594V32.5215H38.6543V33.4414H33.2344V24.9101H38.5957V25.8359H34.3594V28.5781H38.0566V29.498ZM40.9102 27.1016L40.9453 27.8984C41.4297 27.2891 42.0625 26.9844 42.8437 26.9844C44.1836 26.9844 44.8593 27.7402 44.8711 29.2519V33.4414H43.7871V29.2461C43.7832 28.7891 43.6777 28.4512 43.4707 28.2324C43.2675 28.0137 42.9492 27.9043 42.5156 27.9043C42.1641 27.9043 41.8555 27.998 41.5898 28.1855C41.3242 28.373 41.1172 28.6191 40.9688 28.9238V33.4414H39.8848V27.1016H40.9102ZM46.248 30.2187C46.248 29.2305 46.4765 28.4453 46.9336 27.8633C47.3906 27.2773 47.9961 26.9844 48.75 26.9844C49.5234 26.9844 50.1269 27.2578 50.5605 27.8047L50.6132 27.1016H51.6035V33.2891C51.6035 34.1094 51.3593 34.7559 50.8711 35.2285C50.3867 35.7012 49.7343 35.9375 48.914 35.9375C48.457 35.9375 48.0097 35.8398 47.5722 35.6445C47.1347 35.4492 46.8007 35.1816 46.5703 34.8418L47.1328 34.1914C47.5976 34.7656 48.166 35.0527 48.8379 35.0527C49.3652 35.0527 49.7753 34.9043 50.0683 34.6074C50.3652 34.3105 50.5136 33.8926 50.5136 33.3535V32.8086C50.08 33.3086 49.4882 33.5586 48.7382 33.5586C47.9961 33.5586 47.3945 33.2598 46.9336 32.6621C46.4765 32.0644 46.248 31.25 46.248 30.2187ZM47.3379 30.3418C47.3379 31.0566 47.4843 31.6191 47.7773 32.0293C48.0703 32.4355 48.4804 32.6387 49.0078 32.6387C49.6914 32.6387 50.1933 32.3281 50.5136 31.707V28.8125C50.1816 28.207 49.6836 27.9043 49.0195 27.9043C48.4921 27.9043 48.08 28.1094 47.7832 28.5195C47.4863 28.9297 47.3379 29.5371 47.3379 30.3418ZM54.4218 33.4414H53.3379V24.4414H54.4218V33.4414ZM57.3398 33.4414H56.2558V27.1016H57.3398V33.4414ZM56.1679 25.4199C56.1679 25.2441 56.2207 25.0957 56.3261 24.9746C56.4355 24.8535 56.5957 24.793 56.8066 24.793C57.0175 24.793 57.1777 24.8535 57.2871 24.9746C57.3964 25.0957 57.4511 25.2441 57.4511 25.4199C57.4511 25.5957 57.3964 25.7422 57.2871 25.8594C57.1777 25.9766 57.0175 26.0351 56.8066 26.0351C56.5957 26.0351 56.4355 25.9766 56.3261 25.8594C56.2207 25.7422 56.1679 25.5957 56.1679 25.4199ZM62.7714 31.7598C62.7714 31.4668 62.6601 31.2402 62.4375 31.0801C62.2187 30.916 61.8339 30.7754 61.2832 30.6582C60.7363 30.541 60.3007 30.4004 59.9765 30.2363C59.6562 30.0723 59.4179 29.8769 59.2617 29.6504C59.1093 29.4238 59.0332 29.1543 59.0332 28.8418C59.0332 28.3223 59.2519 27.8828 59.6894 27.5234C60.1308 27.1641 60.6933 26.9844 61.3769 26.9844C62.0957 26.9844 62.6777 27.1699 63.123 27.541C63.5722 27.9121 63.7968 28.3867 63.7968 28.9648H62.707C62.707 28.668 62.58 28.4121 62.3261 28.1973C62.0761 27.9824 61.7597 27.875 61.3769 27.875C60.9824 27.875 60.6738 27.9609 60.4511 28.1328C60.2285 28.3047 60.1171 28.5293 60.1171 28.8066C60.1171 29.0683 60.2207 29.2656 60.4277 29.3984C60.6347 29.5312 61.0078 29.6582 61.5468 29.7793C62.0898 29.9004 62.5293 30.0449 62.8652 30.2129C63.2011 30.3808 63.4492 30.584 63.6093 30.8223C63.7734 31.0566 63.8554 31.3437 63.8554 31.6836C63.8554 32.25 63.6289 32.7051 63.1757 33.0488C62.7226 33.3887 62.1347 33.5586 61.4121 33.5586C60.9043 33.5586 60.455 33.4687 60.0644 33.2891C59.6738 33.1094 59.3671 32.8594 59.1445 32.5391C58.9257 32.2148 58.8164 31.8652 58.8164 31.4902H59.9003C59.9199 31.8535 60.0644 32.1426 60.3339 32.3574C60.6074 32.5683 60.9668 32.6738 61.4121 32.6738C61.8222 32.6738 62.1503 32.5918 62.3964 32.4277C62.6464 32.2598 62.7714 32.0371 62.7714 31.7598ZM66.3515 27.8691C66.832 27.2793 67.457 26.9844 68.2265 26.9844C69.5664 26.9844 70.2421 27.7402 70.2539 29.2519V33.4414H69.1699V29.2461C69.166 28.7891 69.0605 28.4512 68.8535 28.2324C68.6503 28.0137 68.332 27.9043 67.8984 27.9043C67.5468 27.9043 67.2382 27.998 66.9726 28.1855C66.707 28.373 66.5 28.6191 66.3515 28.9238V33.4414H65.2675V24.4414H66.3515V27.8691ZM34.4414 47.4414H33.3164V38.9102H34.4414V47.4414ZM37.3594 41.1016L37.3945 41.8984C37.8789 41.2891 38.5117 40.9844 39.293 40.9844C40.6328 40.9844 41.3086 41.7402 41.3203 43.2519V47.4414H40.2363V43.2461C40.2324 42.7891 40.127 42.4512 39.9199 42.2324C39.7168 42.0137 39.3984 41.9043 38.9648 41.9043C38.6133 41.9043 38.3047 41.998 38.0391 42.1855C37.7734 42.373 37.5664 42.6191 37.418 42.9238V47.4414H36.334V41.1016H37.3594ZM38.0566 57.498H34.3594V60.5215H38.6543V61.4414H33.2344V52.9102H38.5957V53.8359H34.3594V56.5781H38.0566V57.498ZM41.0625 61.4414H39.9785V55.1016H41.0625V61.4414ZM39.8906 53.4199C39.8906 53.2441 39.9434 53.0957 40.0488 52.9746C40.1582 52.8535 40.3184 52.793 40.5293 52.793C40.7402 52.793 40.9004 52.8535 41.0098 52.9746C41.1191 53.0957 41.1738 53.2441 41.1738 53.4199C41.1738 53.5957 41.1191 53.7422 41.0098 53.8594C40.9004 53.9766 40.7402 54.0352 40.5293 54.0352C40.3184 54.0352 40.1582 53.9766 40.0488 53.8594C39.9434 53.7422 39.8906 53.5957 39.8906 53.4199ZM42.5449 58.2187C42.5449 57.2305 42.7734 56.4453 43.2304 55.8633C43.6875 55.2773 44.2929 54.9844 45.0468 54.9844C45.8203 54.9844 46.4238 55.2578 46.8574 55.8047L46.9101 55.1016H47.9003V61.2891C47.9003 62.1094 47.6562 62.7559 47.1679 63.2285C46.6836 63.7012 46.0312 63.9375 45.2109 63.9375C44.7539 63.9375 44.3066 63.8398 43.8691 63.6445C43.4316 63.4492 43.0976 63.1816 42.8671 62.8418L43.4296 62.1914C43.8945 62.7656 44.4629 63.0527 45.1347 63.0527C45.6621 63.0527 46.0722 62.9043 46.3652 62.6074C46.6621 62.3105 46.8105 61.8926 46.8105 61.3535V60.8086C46.3769 61.3086 45.7851 61.5586 45.0351 61.5586C44.2929 61.5586 43.6914 61.2598 43.2304 60.6621C42.7734 60.0644 42.5449 59.25 42.5449 58.2187ZM43.6347 58.3418C43.6347 59.0566 43.7812 59.6191 44.0742 60.0293C44.3671 60.4355 44.7773 60.6387 45.3046 60.6387C45.9882 60.6387 46.4902 60.3281 46.8105 59.707V56.8125C46.4785 56.207 45.9804 55.9043 45.3164 55.9043C44.789 55.9043 44.3769 56.1094 44.08 56.5195C43.7832 56.9297 43.6347 57.5371 43.6347 58.3418ZM50.625 55.8691C51.1054 55.2793 51.7304 54.9844 52.5 54.9844C53.8398 54.9844 54.5156 55.7402 54.5273 57.2519V61.4414H53.4433V57.2461C53.4394 56.7891 53.3339 56.4512 53.1269 56.2324C52.9238 56.0137 52.6054 55.9043 52.1718 55.9043C51.8203 55.9043 51.5117 55.998 51.2461 56.1855C50.9804 56.373 50.7734 56.6191 50.625 56.9238V61.4414H49.541V52.4414H50.625V55.8691ZM57.6211 53.5664V55.1016H58.8046V55.9394H57.6211V59.8711C57.6211 60.125 57.6738 60.3164 57.7793 60.4453C57.8847 60.5703 58.0644 60.6328 58.3183 60.6328C58.4433 60.6328 58.6152 60.6094 58.8339 60.5625V61.4414C58.5488 61.5195 58.2714 61.5586 58.0019 61.5586C57.5175 61.5586 57.1523 61.4121 56.9062 61.1191C56.6601 60.8262 56.5371 60.4102 56.5371 59.8711V55.9394H55.3828V55.1016H56.5371V53.5664H57.6211ZM34.6875 66.9102L37.4766 73.8711L40.2656 66.9102H41.7246V75.4414H40.5996V72.1191L40.7051 68.5332L37.9043 75.4414H37.043L34.2481 68.5508L34.3594 72.1191V75.4414H33.2344V66.9102H34.6875ZM44.7187 75.4414H43.6347V69.1016H44.7187V75.4414ZM43.5468 67.4199C43.5468 67.2441 43.5996 67.0957 43.705 66.9746C43.8144 66.8535 43.9746 66.793 44.1855 66.793C44.3964 66.793 44.5566 66.8535 44.666 66.9746C44.7753 67.0957 44.83 67.2441 44.83 67.4199C44.83 67.5957 44.7753 67.7422 44.666 67.8594C44.5566 67.9766 44.3964 68.0352 44.1855 68.0352C43.9746 68.0352 43.8144 67.9766 43.705 67.8594C43.5996 67.7422 43.5468 67.5957 43.5468 67.4199ZM47.4843 69.1016L47.5195 69.8984C48.0039 69.2891 48.6367 68.9844 49.4179 68.9844C50.7578 68.9844 51.4336 69.7402 51.4453 71.2519V75.4414H50.3613V71.2461C50.3574 70.7891 50.2519 70.4512 50.0449 70.2324C49.8418 70.0137 49.5234 69.9043 49.0898 69.9043C48.7382 69.9043 48.4296 69.998 48.164 70.1855C47.8984 70.373 47.6914 70.6191 47.5429 70.9238V75.4414H46.4589V69.1016H47.4843ZM56.9941 74.8144C56.5722 75.3105 55.9531 75.5586 55.1367 75.5586C54.4609 75.5586 53.9453 75.3633 53.5898 74.9726C53.2382 74.5781 53.0605 73.9961 53.0566 73.2266V69.1016H54.1406V73.1973C54.1406 74.1582 54.5312 74.6387 55.3125 74.6387C56.1406 74.6387 56.6914 74.3301 56.9648 73.7129V69.1016H58.0488V75.4414H57.0175L56.9941 74.8144ZM61.1718 67.5664V69.1016H62.3554V69.9394H61.1718V73.8711C61.1718 74.125 61.2246 74.3164 61.33 74.4453C61.4355 74.5703 61.6152 74.6328 61.8691 74.6328C61.9941 74.6328 62.166 74.6094 62.3847 74.5625V75.4414C62.0996 75.5195 61.8222 75.5586 61.5527 75.5586C61.0683 75.5586 60.7031 75.4121 60.457 75.1191C60.2109 74.8262 60.0879 74.4102 60.0879 73.8711V69.9394H58.9336V69.1016H60.0879V67.5664H61.1718ZM66.2578 75.5586C65.3984 75.5586 64.6992 75.2773 64.1601 74.7148C63.6211 74.1484 63.3515 73.3926 63.3515 72.4473V72.248C63.3515 71.6191 63.4707 71.0586 63.7089 70.5664C63.9511 70.0703 64.2871 69.6836 64.7168 69.4062C65.1503 69.125 65.6191 68.9844 66.123 68.9844C66.9472 68.9844 67.5879 69.2559 68.0449 69.7988C68.5019 70.3418 68.7304 71.1191 68.7304 72.1309V72.582H64.4355C64.4511 73.207 64.6328 73.7129 64.9804 74.0996C65.332 74.4824 65.7773 74.6738 66.3164 74.6738C66.6992 74.6738 67.0234 74.5957 67.289 74.4394C67.5546 74.2832 67.7871 74.0762 67.9863 73.8184L68.6484 74.334C68.1171 75.1504 67.3203 75.5586 66.2578 75.5586ZM66.123 69.875C65.6855 69.875 65.3183 70.0352 65.0214 70.3555C64.7246 70.6719 64.541 71.1172 64.4707 71.6914H67.6464V71.6094C67.6152 71.0586 67.4668 70.6328 67.2011 70.332C66.9355 70.0273 66.5761 69.875 66.123 69.875ZM73.6816 73.7598C73.6816 73.4668 73.5703 73.2402 73.3476 73.0801C73.1289 72.916 72.7441 72.7754 72.1933 72.6582C71.6464 72.541 71.2109 72.4004 70.8867 72.2363C70.5664 72.0723 70.3281 71.8769 70.1718 71.6504C70.0195 71.4238 69.9433 71.1543 69.9433 70.8418C69.9433 70.3223 70.1621 69.8828 70.5996 69.5234C71.041 69.1641 71.6035 68.9844 72.2871 68.9844C73.0058 68.9844 73.5879 69.1699 74.0332 69.541C74.4824 69.9121 74.707 70.3867 74.707 70.9648H73.6171C73.6171 70.668 73.4902 70.4121 73.2363 70.1973C72.9863 69.9824 72.6699 69.875 72.2871 69.875C71.8925 69.875 71.5839 69.9609 71.3613 70.1328C71.1386 70.3047 71.0273 70.5293 71.0273 70.8066C71.0273 71.0684 71.1308 71.2656 71.3379 71.3984C71.5449 71.5312 71.9179 71.6582 72.457 71.7793C73 71.9004 73.4394 72.0449 73.7753 72.2129C74.1113 72.3809 74.3593 72.584 74.5195 72.8223C74.6836 73.0566 74.7656 73.3437 74.7656 73.6836C74.7656 74.25 74.539 74.7051 74.0859 75.0488C73.6328 75.3887 73.0449 75.5586 72.3222 75.5586C71.8144 75.5586 71.3652 75.4687 70.9746 75.2891C70.5839 75.1094 70.2773 74.8594 70.0546 74.5391C69.8359 74.2148 69.7265 73.8652 69.7265 73.4902H70.8105C70.83 73.8535 70.9746 74.1426 71.2441 74.3574C71.5175 74.5684 71.8769 74.6738 72.3222 74.6738C72.7324 74.6738 73.0605 74.5918 73.3066 74.4277C73.5566 74.2598 73.6816 74.0371 73.6816 73.7598Z" fill="black"/>
</svg>
