<svg width="111" height="62" viewBox="0 0 111 62" fill="none" xmlns="http://www.w3.org/2000/svg">
<g opacity="0.9">
<rect width="111" height="62" rx="8" fill="white"/>
<line x1="31.7344" y1="5.5" x2="31.7344" y2="56.5" stroke="#0000FF" stroke-width="2" stroke-linejoin="round"/>
<path d="M43.5566 10.498H39.8594V13.5215H44.1543V14.4414H38.7344V5.91015H44.0957V6.83593H39.8594V9.57812H43.5566V10.498ZM46.4102 8.10156L46.4453 8.89843C46.9297 8.28906 47.5625 7.98437 48.3437 7.98437C49.6836 7.98437 50.3593 8.74023 50.3711 10.2519V14.4414H49.2871V10.2461C49.2832 9.78906 49.1777 9.45117 48.9707 9.23242C48.7675 9.01367 48.4492 8.90429 48.0156 8.90429C47.6641 8.90429 47.3555 8.99804 47.0898 9.18554C46.8242 9.37304 46.6172 9.61913 46.4688 9.92382V14.4414H45.3848V8.10156H46.4102ZM51.748 11.2187C51.748 10.2305 51.9765 9.44531 52.4336 8.86328C52.8906 8.27734 53.4961 7.98437 54.25 7.98437C55.0234 7.98437 55.6269 8.25781 56.0605 8.80468L56.1132 8.10156H57.1035V14.2891C57.1035 15.1094 56.8593 15.7559 56.3711 16.2285C55.8867 16.7012 55.2343 16.9375 54.414 16.9375C53.957 16.9375 53.5097 16.8398 53.0722 16.6445C52.6347 16.4492 52.3007 16.1816 52.0703 15.8418L52.6328 15.1914C53.0976 15.7656 53.666 16.0527 54.3379 16.0527C54.8652 16.0527 55.2753 15.9043 55.5683 15.6074C55.8652 15.3105 56.0136 14.8926 56.0136 14.3535V13.8086C55.58 14.3086 54.9882 14.5586 54.2382 14.5586C53.4961 14.5586 52.8945 14.2598 52.4336 13.6621C51.9765 13.0644 51.748 12.25 51.748 11.2187ZM52.8379 11.3418C52.8379 12.0566 52.9843 12.6191 53.2773 13.0293C53.5703 13.4355 53.9804 13.6387 54.5078 13.6387C55.1914 13.6387 55.6933 13.3281 56.0136 12.707V9.81249C55.6816 9.20702 55.1836 8.90429 54.5195 8.90429C53.9921 8.90429 53.58 9.10937 53.2832 9.51952C52.9863 9.92968 52.8379 10.5371 52.8379 11.3418ZM59.9218 14.4414H58.8379V5.4414H59.9218V14.4414ZM62.8398 14.4414H61.7558V8.10156H62.8398V14.4414ZM61.6679 6.41991C61.6679 6.24413 61.7207 6.0957 61.8261 5.9746C61.9355 5.85351 62.0957 5.79296 62.3066 5.79296C62.5175 5.79296 62.6777 5.85351 62.7871 5.9746C62.8964 6.0957 62.9511 6.24413 62.9511 6.41991C62.9511 6.5957 62.8964 6.74218 62.7871 6.85937C62.6777 6.97656 62.5175 7.03515 62.3066 7.03515C62.0957 7.03515 61.9355 6.97656 61.8261 6.85937C61.7207 6.74218 61.6679 6.5957 61.6679 6.41991ZM68.2714 12.7598C68.2714 12.4668 68.1601 12.2402 67.9375 12.0801C67.7187 11.916 67.3339 11.7754 66.7832 11.6582C66.2363 11.541 65.8007 11.4004 65.4765 11.2363C65.1562 11.0723 64.9179 10.8769 64.7617 10.6504C64.6093 10.4238 64.5332 10.1543 64.5332 9.84179C64.5332 9.32226 64.7519 8.88281 65.1894 8.52343C65.6308 8.16406 66.1933 7.98437 66.8769 7.98437C67.5957 7.98437 68.1777 8.16992 68.623 8.54101C69.0722 8.9121 69.2968 9.38671 69.2968 9.96484H68.207C68.207 9.66796 68.08 9.4121 67.8261 9.19726C67.5761 8.98242 67.2597 8.87499 66.8769 8.87499C66.4824 8.87499 66.1738 8.96093 65.9511 9.13281C65.7285 9.30468 65.6171 9.52929 65.6171 9.80663C65.6171 10.0683 65.7207 10.2656 65.9277 10.3984C66.1347 10.5312 66.5078 10.6582 67.0468 10.7793C67.5898 10.9004 68.0293 11.0449 68.3652 11.2129C68.7011 11.3808 68.9492 11.584 69.1093 11.8223C69.2734 12.0566 69.3554 12.3437 69.3554 12.6836C69.3554 13.25 69.1289 13.7051 68.6757 14.0488C68.2226 14.3887 67.6347 14.5586 66.9121 14.5586C66.4043 14.5586 65.955 14.4687 65.5644 14.2891C65.1738 14.1094 64.8671 13.8594 64.6445 13.5391C64.4257 13.2148 64.3164 12.8652 64.3164 12.4902H65.4003C65.4199 12.8535 65.5644 13.1426 65.8339 13.3574C66.1074 13.5683 66.4668 13.6738 66.9121 13.6738C67.3222 13.6738 67.6503 13.5918 67.8964 13.4277C68.1464 13.2598 68.2714 13.0371 68.2714 12.7598ZM71.8515 8.86913C72.332 8.27929 72.957 7.98437 73.7265 7.98437C75.0664 7.98437 75.7421 8.74023 75.7539 10.2519V14.4414H74.6699V10.2461C74.666 9.78906 74.5605 9.45117 74.3535 9.23242C74.1503 9.01367 73.832 8.90429 73.3984 8.90429C73.0468 8.90429 72.7382 8.99804 72.4726 9.18554C72.207 9.37304 72 9.61913 71.8515 9.92382V14.4414H70.7675V5.4414H71.8515V8.86913ZM39.9414 28.4414H38.8164V19.9102H39.9414V28.4414ZM42.8594 22.1016L42.8945 22.8984C43.3789 22.2891 44.0117 21.9844 44.793 21.9844C46.1328 21.9844 46.8086 22.7402 46.8203 24.2519V28.4414H45.7363V24.2461C45.7324 23.7891 45.627 23.4512 45.4199 23.2324C45.2168 23.0137 44.8984 22.9043 44.4648 22.9043C44.1133 22.9043 43.8047 22.998 43.5391 23.1855C43.2734 23.373 43.0664 23.6191 42.918 23.9238V28.4414H41.834V22.1016H42.8594ZM43.5566 38.498H39.8594V41.5215H44.1543V42.4414H38.7344V33.9102H44.0957V34.8359H39.8594V37.5781H43.5566V38.498ZM46.5625 42.4414H45.4785V36.1016H46.5625V42.4414ZM45.3906 34.4199C45.3906 34.2441 45.4434 34.0957 45.5488 33.9746C45.6582 33.8535 45.8184 33.793 46.0293 33.793C46.2402 33.793 46.4004 33.8535 46.5098 33.9746C46.6191 34.0957 46.6738 34.2441 46.6738 34.4199C46.6738 34.5957 46.6191 34.7422 46.5098 34.8594C46.4004 34.9766 46.2402 35.0352 46.0293 35.0352C45.8184 35.0352 45.6582 34.9766 45.5488 34.8594C45.4434 34.7422 45.3906 34.5957 45.3906 34.4199ZM48.0449 39.2187C48.0449 38.2305 48.2734 37.4453 48.7304 36.8633C49.1875 36.2773 49.7929 35.9844 50.5468 35.9844C51.3203 35.9844 51.9238 36.2578 52.3574 36.8047L52.4101 36.1016H53.4003V42.2891C53.4003 43.1094 53.1562 43.7559 52.6679 44.2285C52.1836 44.7012 51.5312 44.9375 50.7109 44.9375C50.2539 44.9375 49.8066 44.8398 49.3691 44.6445C48.9316 44.4492 48.5976 44.1816 48.3671 43.8418L48.9296 43.1914C49.3945 43.7656 49.9629 44.0527 50.6347 44.0527C51.1621 44.0527 51.5722 43.9043 51.8652 43.6074C52.1621 43.3105 52.3105 42.8926 52.3105 42.3535V41.8086C51.8769 42.3086 51.2851 42.5586 50.5351 42.5586C49.7929 42.5586 49.1914 42.2598 48.7304 41.6621C48.2734 41.0644 48.0449 40.25 48.0449 39.2187ZM49.1347 39.3418C49.1347 40.0566 49.2812 40.6191 49.5742 41.0293C49.8671 41.4355 50.2773 41.6387 50.8046 41.6387C51.4882 41.6387 51.9902 41.3281 52.3105 40.707V37.8125C51.9785 37.207 51.4804 36.9043 50.8164 36.9043C50.289 36.9043 49.8769 37.1094 49.58 37.5195C49.2832 37.9297 49.1347 38.5371 49.1347 39.3418ZM56.125 36.8691C56.6054 36.2793 57.2304 35.9844 58 35.9844C59.3398 35.9844 60.0156 36.7402 60.0273 38.2519V42.4414H58.9433V38.2461C58.9394 37.7891 58.8339 37.4512 58.6269 37.2324C58.4238 37.0137 58.1054 36.9043 57.6718 36.9043C57.3203 36.9043 57.0117 36.998 56.7461 37.1855C56.4804 37.373 56.2734 37.6191 56.125 37.9238V42.4414H55.041V33.4414H56.125V36.8691ZM63.1211 34.5664V36.1016H64.3046V36.9394H63.1211V40.8711C63.1211 41.125 63.1738 41.3164 63.2793 41.4453C63.3847 41.5703 63.5644 41.6328 63.8183 41.6328C63.9433 41.6328 64.1152 41.6094 64.3339 41.5625V42.4414C64.0488 42.5195 63.7714 42.5586 63.5019 42.5586C63.0175 42.5586 62.6523 42.4121 62.4062 42.1191C62.1601 41.8262 62.0371 41.4102 62.0371 40.8711V36.9394H60.8828V36.1016H62.0371V34.5664H63.1211ZM40.1875 47.9102L42.9766 54.8711L45.7656 47.9102H47.2246V56.4414H46.0996V53.1191L46.2051 49.5332L43.4043 56.4414H42.543L39.7481 49.5508L39.8594 53.1191V56.4414H38.7344V47.9102H40.1875ZM50.2187 56.4414H49.1347V50.1016H50.2187V56.4414ZM49.0468 48.4199C49.0468 48.2441 49.0996 48.0957 49.205 47.9746C49.3144 47.8535 49.4746 47.793 49.6855 47.793C49.8964 47.793 50.0566 47.8535 50.166 47.9746C50.2753 48.0957 50.33 48.2441 50.33 48.4199C50.33 48.5957 50.2753 48.7422 50.166 48.8594C50.0566 48.9766 49.8964 49.0352 49.6855 49.0352C49.4746 49.0352 49.3144 48.9766 49.205 48.8594C49.0996 48.7422 49.0468 48.5957 49.0468 48.4199ZM52.9843 50.1016L53.0195 50.8984C53.5039 50.2891 54.1367 49.9844 54.9179 49.9844C56.2578 49.9844 56.9336 50.7402 56.9453 52.2519V56.4414H55.8613V52.2461C55.8574 51.7891 55.7519 51.4512 55.5449 51.2324C55.3418 51.0137 55.0234 50.9043 54.5898 50.9043C54.2382 50.9043 53.9296 50.998 53.664 51.1855C53.3984 51.373 53.1914 51.6191 53.0429 51.9238V56.4414H51.9589V50.1016H52.9843ZM62.4941 55.8144C62.0722 56.3105 61.4531 56.5586 60.6367 56.5586C59.9609 56.5586 59.4453 56.3633 59.0898 55.9726C58.7382 55.5781 58.5605 54.9961 58.5566 54.2266V50.1016H59.6406V54.1973C59.6406 55.1582 60.0312 55.6387 60.8125 55.6387C61.6406 55.6387 62.1914 55.3301 62.4648 54.7129V50.1016H63.5488V56.4414H62.5175L62.4941 55.8144ZM66.6718 48.5664V50.1016H67.8554V50.9394H66.6718V54.8711C66.6718 55.125 66.7246 55.3164 66.83 55.4453C66.9355 55.5703 67.1152 55.6328 67.3691 55.6328C67.4941 55.6328 67.666 55.6094 67.8847 55.5625V56.4414C67.5996 56.5195 67.3222 56.5586 67.0527 56.5586C66.5683 56.5586 66.2031 56.4121 65.957 56.1191C65.7109 55.8262 65.5879 55.4102 65.5879 54.8711V50.9394H64.4336V50.1016H65.5879V48.5664H66.6718ZM71.7578 56.5586C70.8984 56.5586 70.1992 56.2773 69.6601 55.7148C69.1211 55.1484 68.8515 54.3926 68.8515 53.4473V53.248C68.8515 52.6191 68.9707 52.0586 69.2089 51.5664C69.4511 51.0703 69.7871 50.6836 70.2168 50.4062C70.6503 50.125 71.1191 49.9844 71.623 49.9844C72.4472 49.9844 73.0879 50.2559 73.5449 50.7988C74.0019 51.3418 74.2304 52.1191 74.2304 53.1309V53.582H69.9355C69.9511 54.207 70.1328 54.7129 70.4804 55.0996C70.832 55.4824 71.2773 55.6738 71.8164 55.6738C72.1992 55.6738 72.5234 55.5957 72.789 55.4394C73.0546 55.2832 73.2871 55.0762 73.4863 54.8184L74.1484 55.334C73.6171 56.1504 72.8203 56.5586 71.7578 56.5586ZM71.623 50.875C71.1855 50.875 70.8183 51.0352 70.5214 51.3555C70.2246 51.6719 70.041 52.1172 69.9707 52.6914H73.1464V52.6094C73.1152 52.0586 72.9668 51.6328 72.7011 51.332C72.4355 51.0273 72.0761 50.875 71.623 50.875ZM79.1816 54.7598C79.1816 54.4668 79.0703 54.2402 78.8476 54.0801C78.6289 53.916 78.2441 53.7754 77.6933 53.6582C77.1464 53.541 76.7109 53.4004 76.3867 53.2363C76.0664 53.0723 75.8281 52.8769 75.6718 52.6504C75.5195 52.4238 75.4433 52.1543 75.4433 51.8418C75.4433 51.3223 75.6621 50.8828 76.0996 50.5234C76.541 50.1641 77.1035 49.9844 77.7871 49.9844C78.5058 49.9844 79.0879 50.1699 79.5332 50.541C79.9824 50.9121 80.207 51.3867 80.207 51.9648H79.1171C79.1171 51.668 78.9902 51.4121 78.7363 51.1973C78.4863 50.9824 78.1699 50.875 77.7871 50.875C77.3925 50.875 77.0839 50.9609 76.8613 51.1328C76.6386 51.3047 76.5273 51.5293 76.5273 51.8066C76.5273 52.0684 76.6308 52.2656 76.8379 52.3984C77.0449 52.5312 77.4179 52.6582 77.957 52.7793C78.5 52.9004 78.9394 53.0449 79.2753 53.2129C79.6113 53.3809 79.8593 53.584 80.0195 53.8223C80.1836 54.0566 80.2656 54.3437 80.2656 54.6836C80.2656 55.25 80.039 55.7051 79.5859 56.0488C79.1328 56.3887 78.5449 56.5586 77.8222 56.5586C77.3144 56.5586 76.8652 56.4687 76.4746 56.2891C76.0839 56.1094 75.7773 55.8594 75.5546 55.5391C75.3359 55.2148 75.2265 54.8652 75.2265 54.4902H76.3105C76.33 54.8535 76.4746 55.1426 76.7441 55.3574C77.0175 55.5684 77.3769 55.6738 77.8222 55.6738C78.2324 55.6738 78.5605 55.5918 78.8066 55.4277C79.0566 55.2598 79.1816 55.0371 79.1816 54.7598Z" fill="black"/>
</g>
</svg>
