<svg width="66" height="68" viewBox="0 0 66 68" fill="none" xmlns="http://www.w3.org/2000/svg">
<rect width="65.5312" height="67.1172" fill="white"/>
<path opacity="0.9" d="M8 8V59" stroke="#0000FF" stroke-width="2" stroke-linejoin="round"/>
<path opacity="0.9" d="M20.8222 13.0566H17.125V16.0801H21.4199V17H16V8.46875H21.3613V9.39453H17.125V12.1367H20.8222V13.0566ZM23.6758 10.6602L23.7109 11.457C24.1953 10.8477 24.8281 10.543 25.6093 10.543C26.9492 10.543 27.6249 11.2988 27.6367 12.8105V17H26.5527V12.8047C26.5488 12.3477 26.4433 12.0098 26.2363 11.791C26.0331 11.5723 25.7148 11.4629 25.2812 11.4629C24.9297 11.4629 24.6211 11.5566 24.3554 11.7441C24.0898 11.9316 23.8828 12.1777 23.7344 12.4824V17H22.6504V10.6602H23.6758ZM29.0136 13.7773C29.0136 12.7891 29.2421 12.0039 29.6992 11.4219C30.1562 10.8359 30.7617 10.543 31.5156 10.543C32.289 10.543 32.8925 10.8164 33.3261 11.3633L33.3788 10.6602H34.3691V16.8477C34.3691 17.668 34.1249 18.3145 33.6367 18.7871C33.1523 19.2598 32.4999 19.4961 31.6796 19.4961C31.2226 19.4961 30.7753 19.3984 30.3378 19.2031C29.9003 19.0078 29.5663 18.7402 29.3359 18.4004L29.8984 17.75C30.3632 18.3242 30.9316 18.6113 31.6035 18.6113C32.1308 18.6113 32.5409 18.4629 32.8339 18.166C33.1308 17.8691 33.2792 17.4512 33.2792 16.9121V16.3672C32.8456 16.8672 32.2538 17.1172 31.5038 17.1172C30.7617 17.1172 30.1601 16.8184 29.6992 16.2207C29.2421 15.623 29.0136 14.8086 29.0136 13.7773ZM30.1035 13.9004C30.1035 14.6152 30.2499 15.1777 30.5429 15.5879C30.8359 15.9941 31.246 16.1973 31.7734 16.1973C32.457 16.1973 32.9589 15.8867 33.2792 15.2656V12.3711C32.9472 11.7656 32.4492 11.4629 31.7851 11.4629C31.2577 11.4629 30.8456 11.668 30.5488 12.0781C30.2519 12.4883 30.1035 13.0957 30.1035 13.9004ZM37.1874 17H36.1035V8H37.1874V17ZM40.1054 17H39.0214V10.6602H40.1054V17ZM38.9335 8.97851C38.9335 8.80273 38.9863 8.6543 39.0917 8.5332C39.2011 8.41211 39.3613 8.35156 39.5722 8.35156C39.7831 8.35156 39.9433 8.41211 40.0527 8.5332C40.162 8.6543 40.2167 8.80273 40.2167 8.97851C40.2167 9.1543 40.162 9.30078 40.0527 9.41797C39.9433 9.53516 39.7831 9.59375 39.5722 9.59375C39.3613 9.59375 39.2011 9.53516 39.0917 9.41797C38.9863 9.30078 38.9335 9.1543 38.9335 8.97851ZM45.537 15.3184C45.537 15.0254 45.4257 14.7988 45.2031 14.6387C44.9843 14.4746 44.5995 14.334 44.0488 14.2168C43.5019 14.0996 43.0663 13.959 42.7421 13.7949C42.4218 13.6309 42.1835 13.4355 42.0273 13.209C41.8749 12.9824 41.7988 12.7129 41.7988 12.4004C41.7988 11.8809 42.0175 11.4414 42.455 11.082C42.8964 10.7227 43.4589 10.543 44.1425 10.543C44.8613 10.543 45.4433 10.7285 45.8886 11.0996C46.3378 11.4707 46.5624 11.9453 46.5624 12.5234H45.4726C45.4726 12.2266 45.3456 11.9707 45.0917 11.7559C44.8417 11.541 44.5253 11.4336 44.1425 11.4336C43.748 11.4336 43.4394 11.5195 43.2167 11.6914C42.9941 11.8633 42.8827 12.0879 42.8827 12.3652C42.8827 12.6269 42.9863 12.8242 43.1933 12.957C43.4003 13.0898 43.7734 13.2168 44.3124 13.3379C44.8554 13.459 45.2949 13.6035 45.6308 13.7715C45.9667 13.9394 46.2148 14.1426 46.3749 14.3809C46.539 14.6152 46.621 14.9023 46.621 15.2422C46.621 15.8086 46.3945 16.2637 45.9413 16.6074C45.4882 16.9473 44.9003 17.1172 44.1777 17.1172C43.6699 17.1172 43.2206 17.0273 42.83 16.8477C42.4394 16.668 42.1327 16.418 41.9101 16.0977C41.6913 15.7734 41.582 15.4238 41.582 15.0488H42.6659C42.6855 15.4121 42.83 15.7012 43.0995 15.916C43.373 16.1269 43.7324 16.2324 44.1777 16.2324C44.5878 16.2324 44.9159 16.1504 45.162 15.9863C45.412 15.8184 45.537 15.5957 45.537 15.3184ZM49.1171 11.4277C49.5976 10.8379 50.2226 10.543 50.9921 10.543C52.332 10.543 53.0077 11.2988 53.0195 12.8105V17H51.9355V12.8047C51.9316 12.3477 51.8261 12.0098 51.6191 11.791C51.4159 11.5723 51.0976 11.4629 50.664 11.4629C50.3124 11.4629 50.0038 11.5566 49.7382 11.7441C49.4726 11.9316 49.2656 12.1777 49.1171 12.4824V17H48.0331V8H49.1171V11.4277ZM17.207 31H16.082V22.4688H17.207V31ZM20.125 24.6602L20.1601 25.457C20.6445 24.8477 21.2773 24.543 22.0586 24.543C23.3984 24.543 24.0742 25.2988 24.0859 26.8105V31H23.0019V26.8047C22.998 26.3477 22.8926 26.0098 22.6855 25.791C22.4824 25.5723 22.164 25.4629 21.7304 25.4629C21.3789 25.4629 21.0703 25.5566 20.8047 25.7441C20.539 25.9316 20.332 26.1777 20.1836 26.4824V31H19.0996V24.6602H20.125ZM20.8222 41.0566H17.125V44.0801H21.4199V45H16V36.4688H21.3613V37.3945H17.125V40.1367H20.8222V41.0566ZM23.8281 45H22.7441V38.6602H23.8281V45ZM22.6562 36.9785C22.6562 36.8027 22.709 36.6543 22.8144 36.5332C22.9238 36.4121 23.084 36.3516 23.2949 36.3516C23.5058 36.3516 23.666 36.4121 23.7754 36.5332C23.8847 36.6543 23.9394 36.8027 23.9394 36.9785C23.9394 37.1543 23.8847 37.3008 23.7754 37.418C23.666 37.5352 23.5058 37.5938 23.2949 37.5938C23.084 37.5938 22.9238 37.5352 22.8144 37.418C22.709 37.3008 22.6562 37.1543 22.6562 36.9785ZM25.3105 41.7773C25.3105 40.7891 25.539 40.0039 25.996 39.4219C26.4531 38.8359 27.0585 38.543 27.8124 38.543C28.5859 38.543 29.1894 38.8164 29.623 39.3633L29.6757 38.6602H30.6659V44.8477C30.6659 45.668 30.4218 46.3145 29.9335 46.7871C29.4492 47.2598 28.7968 47.4961 27.9765 47.4961C27.5195 47.4961 27.0722 47.3984 26.6347 47.2031C26.1972 47.0078 25.8632 46.7402 25.6327 46.4004L26.1952 45.75C26.6601 46.3242 27.2285 46.6113 27.9003 46.6113C28.4277 46.6113 28.8378 46.4629 29.1308 46.166C29.4277 45.8691 29.5761 45.4512 29.5761 44.9121V44.3672C29.1425 44.8672 28.5507 45.1172 27.8007 45.1172C27.0585 45.1172 26.457 44.8184 25.996 44.2207C25.539 43.623 25.3105 42.8086 25.3105 41.7773ZM26.4003 41.9004C26.4003 42.6152 26.5468 43.1777 26.8398 43.5879C27.1327 43.9941 27.5429 44.1973 28.0702 44.1973C28.7538 44.1973 29.2558 43.8867 29.5761 43.2656V40.3711C29.2441 39.7656 28.746 39.4629 28.082 39.4629C27.5546 39.4629 27.1425 39.668 26.8456 40.0781C26.5488 40.4883 26.4003 41.0957 26.4003 41.9004ZM33.3906 39.4277C33.871 38.8379 34.496 38.543 35.2656 38.543C36.6054 38.543 37.2812 39.2988 37.2929 40.8105V45H36.2089V40.8047C36.205 40.3477 36.0995 40.0098 35.8925 39.791C35.6894 39.5723 35.371 39.4629 34.9374 39.4629C34.5859 39.4629 34.2773 39.5566 34.0117 39.7441C33.746 39.9316 33.539 40.1777 33.3906 40.4824V45H32.3066V36H33.3906V39.4277ZM40.3867 37.125V38.6602H41.5702V39.498H40.3867V43.4297C40.3867 43.6836 40.4394 43.875 40.5449 44.0039C40.6503 44.1289 40.83 44.1914 41.0839 44.1914C41.2089 44.1914 41.3808 44.168 41.5995 44.1211V45C41.3144 45.0781 41.037 45.1172 40.7675 45.1172C40.2831 45.1172 39.9179 44.9707 39.6718 44.6777C39.4257 44.3848 39.3027 43.9688 39.3027 43.4297V39.498H38.1484V38.6602H39.3027V37.125H40.3867ZM17.4531 50.4688L20.2422 57.4297L23.0312 50.4688H24.4902V59H23.3652V55.6777L23.4707 52.0918L20.6699 59H19.8086L17.0137 52.1094L17.125 55.6777V59H16V50.4688H17.4531ZM27.4843 59H26.4003V52.6602H27.4843V59ZM26.3124 50.9785C26.3124 50.8027 26.3652 50.6543 26.4706 50.5332C26.58 50.4121 26.7402 50.3516 26.9511 50.3516C27.162 50.3516 27.3222 50.4121 27.4316 50.5332C27.5409 50.6543 27.5956 50.8027 27.5956 50.9785C27.5956 51.1543 27.5409 51.3008 27.4316 51.418C27.3222 51.5352 27.162 51.5938 26.9511 51.5938C26.7402 51.5938 26.58 51.5352 26.4706 51.418C26.3652 51.3008 26.3124 51.1543 26.3124 50.9785ZM30.2499 52.6602L30.2851 53.457C30.7695 52.8477 31.4023 52.543 32.1835 52.543C33.5234 52.543 34.1992 53.2988 34.2109 54.8105V59H33.1269V54.8047C33.123 54.3477 33.0175 54.0098 32.8105 53.791C32.6074 53.5723 32.289 53.4629 31.8554 53.4629C31.5038 53.4629 31.1952 53.5566 30.9296 53.7441C30.664 53.9316 30.457 54.1777 30.3085 54.4824V59H29.2245V52.6602H30.2499ZM39.7597 58.373C39.3378 58.8691 38.7187 59.1172 37.9023 59.1172C37.2265 59.1172 36.7109 58.9219 36.3554 58.5312C36.0038 58.1367 35.8261 57.5547 35.8222 56.7852V52.6602H36.9062V56.7559C36.9062 57.7168 37.2968 58.1973 38.0781 58.1973C38.9062 58.1973 39.457 57.8887 39.7304 57.2715V52.6602H40.8144V59H39.7831L39.7597 58.373ZM43.9374 51.125V52.6602H45.121V53.498H43.9374V57.4297C43.9374 57.6836 43.9902 57.875 44.0956 58.0039C44.2011 58.1289 44.3808 58.1914 44.6347 58.1914C44.7597 58.1914 44.9316 58.168 45.1503 58.1211V59C44.8652 59.0781 44.5878 59.1172 44.3183 59.1172C43.8339 59.1172 43.4687 58.9707 43.2226 58.6777C42.9765 58.3848 42.8535 57.9688 42.8535 57.4297V53.498H41.6992V52.6602H42.8535V51.125H43.9374ZM49.0234 59.1172C48.164 59.1172 47.4648 58.8359 46.9257 58.2734C46.3867 57.707 46.1171 56.9512 46.1171 56.0059V55.8066C46.1171 55.1777 46.2363 54.6172 46.4745 54.125C46.7167 53.6289 47.0527 53.2422 47.4824 52.9648C47.9159 52.6836 48.3847 52.543 48.8886 52.543C49.7128 52.543 50.3535 52.8145 50.8105 53.3574C51.2675 53.9004 51.496 54.6777 51.496 55.6895V56.1406H47.2011C47.2167 56.7656 47.3984 57.2715 47.746 57.6582C48.0976 58.041 48.5429 58.2324 49.082 58.2324C49.4648 58.2324 49.789 58.1543 50.0546 57.998C50.3202 57.8418 50.5527 57.6348 50.7519 57.377L51.414 57.8926C50.8827 58.709 50.0859 59.1172 49.0234 59.1172ZM48.8886 53.4336C48.4511 53.4336 48.0839 53.5938 47.787 53.9141C47.4902 54.2305 47.3066 54.6758 47.2363 55.25H50.412V55.168C50.3808 54.6172 50.2324 54.1914 49.9667 53.8906C49.7011 53.5859 49.3417 53.4336 48.8886 53.4336ZM56.4472 57.3184C56.4472 57.0254 56.3359 56.7988 56.1132 56.6387C55.8945 56.4746 55.5097 56.334 54.9589 56.2168C54.412 56.0996 53.9765 55.959 53.6523 55.7949C53.332 55.6309 53.0937 55.4355 52.9374 55.209C52.7851 54.9824 52.7089 54.7129 52.7089 54.4004C52.7089 53.8809 52.9277 53.4414 53.3652 53.082C53.8066 52.7227 54.3691 52.543 55.0527 52.543C55.7714 52.543 56.3535 52.7285 56.7988 53.0996C57.248 53.4707 57.4726 53.9453 57.4726 54.5234H56.3827C56.3827 54.2266 56.2558 53.9707 56.0019 53.7559C55.7519 53.541 55.4355 53.4336 55.0527 53.4336C54.6581 53.4336 54.3495 53.5195 54.1269 53.6914C53.9042 53.8633 53.7929 54.0879 53.7929 54.3652C53.7929 54.627 53.8964 54.8242 54.1035 54.957C54.3105 55.0898 54.6835 55.2168 55.2226 55.3379C55.7656 55.459 56.205 55.6035 56.5409 55.7715C56.8769 55.9395 57.1249 56.1426 57.2851 56.3809C57.4492 56.6152 57.5312 56.9023 57.5312 57.2422C57.5312 57.8086 57.3046 58.2637 56.8515 58.6074C56.3984 58.9473 55.8105 59.1172 55.0878 59.1172C54.58 59.1172 54.1308 59.0273 53.7402 58.8477C53.3495 58.668 53.0429 58.418 52.8202 58.0977C52.6015 57.7734 52.4921 57.4238 52.4921 57.0488H53.5761C53.5956 57.4121 53.7402 57.7012 54.0097 57.916C54.2831 58.127 54.6425 58.2324 55.0878 58.2324C55.498 58.2324 55.8261 58.1504 56.0722 57.9863C56.3222 57.8184 56.4472 57.5957 56.4472 57.3184Z" fill="black"/>
</svg>
